<svg xmlns="http://www.w3.org/2000/svg" width="12.24" height="12.235" viewBox="0 0 12.24 12.235">
  <path id="路径_643" data-name="路径 643" d="M120.571,114.17a.821.821,0,0,0-.808-.716.607.607,0,0,0-.1.008.447.447,0,0,0-.107.02.585.585,0,0,1-.151.02.644.644,0,0,1-.539-.3.6.6,0,0,1,.224-.835.811.811,0,0,0,.291-1.118l-.059-.088a6,6,0,0,0-1.059-1.059.8.8,0,0,0-.5-.176.824.824,0,0,0-.648.319l-.059.088a.617.617,0,0,1-.534.3.6.6,0,0,1-.156-.02.612.612,0,0,1-.439-.749.82.82,0,0,0-.583-1,.374.374,0,0,0-.107-.02,6.716,6.716,0,0,0-.744-.042,6.906,6.906,0,0,0-.749.042.806.806,0,0,0-.71.9.447.447,0,0,0,.02.107.629.629,0,0,1-.283.69.575.575,0,0,1-.3.085.614.614,0,0,1-.531-.307.812.812,0,0,0-.7-.406.785.785,0,0,0-.412.115l-.088.059a6,6,0,0,0-1.059,1.059.808.808,0,0,0,.147,1.145l.088.059a.625.625,0,0,1,.283.69.609.609,0,0,1-.589.458.658.658,0,0,1-.16-.021.772.772,0,0,0-.21-.027.82.82,0,0,0-.79.611.373.373,0,0,0-.02.106,6.334,6.334,0,0,0,0,1.495.8.8,0,0,0,.8.716.607.607,0,0,0,.1-.008.383.383,0,0,0,.107-.02.586.586,0,0,1,.151-.02.644.644,0,0,1,.539.3.6.6,0,0,1-.224.835.809.809,0,0,0-.291,1.117l.059.088a6,6,0,0,0,1.059,1.059.8.8,0,0,0,.5.176.824.824,0,0,0,.648-.319l.059-.088a.617.617,0,0,1,.534-.3.6.6,0,0,1,.156.02.612.612,0,0,1,.439.749.82.82,0,0,0,.583,1,.449.449,0,0,0,.106.02,6.642,6.642,0,0,0,1.5,0,.82.82,0,0,0,.71-.912.364.364,0,0,0-.02-.106.629.629,0,0,1,.283-.69.575.575,0,0,1,.3-.085.614.614,0,0,1,.531.307.812.812,0,0,0,.7.406.789.789,0,0,0,.412-.115l.088-.059a6,6,0,0,0,1.059-1.059.808.808,0,0,0-.147-1.145l-.088-.059a.625.625,0,0,1-.283-.69.609.609,0,0,1,.589-.458.658.658,0,0,1,.16.021.772.772,0,0,0,.21.027.82.82,0,0,0,.79-.611.447.447,0,0,0,.02-.107A5.677,5.677,0,0,0,120.571,114.17Zm-6.074,2.715a1.966,1.966,0,1,1,1.966-1.966A1.967,1.967,0,0,1,114.5,116.885Z" transform="translate(-108.375 -108.8)" fill="#fff"/>
</svg>
