<svg xmlns="http://www.w3.org/2000/svg" width="12.853" height="12.853" viewBox="0 0 12.853 12.853">
  <g id="组_1778" data-name="组 1778" transform="translate(-21 -69)">
    <path id="路径_623" data-name="路径 623" d="M128.673,132.425a.7.7,0,0,1-.457-1.227l5.728-4.951a.7.7,0,1,1,.914,1.057l-5.728,4.951A.7.7,0,0,1,128.673,132.425Z" transform="translate(-106.974 -57.078)" fill="#fff"/>
    <path id="路径_624" data-name="路径 624" d="M219.4,132.425a.7.7,0,0,1-.457-.17l-5.728-4.951a.7.7,0,0,1,.914-1.057l5.728,4.951a.7.7,0,0,1-.457,1.227Zm-6.034-3.71-4.771,4.011v5.728a.475.475,0,0,0,.476.476h3.039v-3.57h3.124v3.57h3.04a.475.475,0,0,0,.476-.476v-5.728l-4.771-4.011A.475.475,0,0,0,213.364,128.715Z" transform="translate(-186.244 -57.078)" fill="#fff"/>
  </g>
</svg>
