<svg xmlns="http://www.w3.org/2000/svg" width="9.122" height="14.335" viewBox="0 0 9.122 14.335">
  <path id="路径_644" data-name="路径 644" d="M94.816,54.679a.435.435,0,0,1-.434.434H90.906a.434.434,0,0,1,0-.869h3.475A.435.435,0,0,1,94.816,54.679Zm-.434.652H90.906a.436.436,0,0,0-.412.576.445.445,0,0,0,.43.293h.007a.663.663,0,0,1,.593.366l0,.009a.893.893,0,0,0,.8.493h.634a.893.893,0,0,0,.8-.493l0-.009a.663.663,0,0,1,.593-.366h.007a.445.445,0,0,0,.43-.293A.436.436,0,0,0,94.381,55.331Zm.434-1.738a.435.435,0,0,1-.434.434H90.906a.433.433,0,0,1-.025-.866c-.27-2.444-2.8-2.989-2.8-5.867a4.561,4.561,0,1,1,9.122,0c0,2.878-2.528,3.423-2.8,5.867A.433.433,0,0,1,94.816,53.593Z" transform="translate(-88.082 -42.733)" fill="#fff"/>
</svg>
