<svg xmlns="http://www.w3.org/2000/svg" width="11.218" height="12.081" viewBox="0 0 11.218 12.081">
  <path id="路径_638" data-name="路径 638" d="M360.637,132.173h-2.649a.651.651,0,0,0,0,1.294h2.665a.652.652,0,0,0-.016-1.294Zm2.876.431h-1.319a1.153,1.153,0,0,1,.021.215,1.031,1.031,0,0,1-.864,1.08H357.3a1.031,1.031,0,0,1-.889-1.08,1.191,1.191,0,0,1,.022-.215H355.1c-1.073,0-1.337.608-1.337,1.486v8.693c0,.943.378,1.47,1.418,1.47h8.254c1.04,0,1.546-.414,1.546-1.47V134.09a1.345,1.345,0,0,0-1.465-1.486Zm-1.355,8.583h-5.736a.5.5,0,0,1-.422-.471.4.4,0,0,1,.39-.392h5.719a.411.411,0,0,1,.406.392c0,.212-.146.471-.357.471Zm.023-2.3h-5.736c-.211,0-.346-.227-.346-.439a.426.426,0,0,1,.39-.424h5.719a.44.44,0,0,1,.406.424.481.481,0,0,1-.434.439Zm0-2.364h-5.736c-.211,0-.346-.227-.346-.439a.426.426,0,0,1,.39-.424h5.719a.44.44,0,0,1,.406.424.481.481,0,0,1-.434.439ZM362.181,136.522Z" transform="translate(-353.76 -132.173)" fill="#fff"/>
</svg>
