<svg xmlns="http://www.w3.org/2000/svg" width="11.24" height="12.285" viewBox="0 0 11.24 12.285">
  <path id="路径_642" data-name="路径 642" d="M10.064,0H1.177A1.235,1.235,0,0,0,0,1.286V11a1.235,1.235,0,0,0,1.177,1.286h8.887A1.235,1.235,0,0,0,11.24,11V1.286A1.235,1.235,0,0,0,10.064,0ZM9.256,9.9H1.985a.636.636,0,0,1,0-1.267H9.256a.614.614,0,0,1,.58.633A.6.6,0,0,1,9.256,9.9Zm0-3.609a.614.614,0,0,1-.58-.633v-1L6.024,7.889,3.846,5.663,2.424,7.39A.542.542,0,0,1,2,7.6a.522.522,0,0,1-.386-.173.767.767,0,0,1-.193-.441.83.83,0,0,1,.141-.461L3.776,3.839,5.954,6.046l2-2.4H7.078a.614.614,0,0,1-.58-.633.614.614,0,0,1,.58-.633H9.256a.206.206,0,0,1,.105.019.65.65,0,0,1,.105.038.567.567,0,0,1,.105.058.379.379,0,0,0,.088.058l.018.019a.334.334,0,0,1,.07.1.429.429,0,0,1,.053.1c.018.038.018.077.035.1,0,.038.018.077.018.134V5.663a.641.641,0,0,1-.6.633Zm0,0" fill="#fff"/>
</svg>
