<svg xmlns="http://www.w3.org/2000/svg" width="12.105" height="12.105" viewBox="0 0 12.105 12.105">
  <path id="路径_627" data-name="路径 627" d="M64.669,63.588a7.225,7.225,0,0,0-.65-.586,3.392,3.392,0,0,0-.7-5.886,3.116,3.116,0,0,1,1.135-.227,3.359,3.359,0,0,1,.215,6.7Zm0-3.337a3.244,3.244,0,1,1-3.241-3.362,3.3,3.3,0,0,1,3.241,3.362Zm-5.4,3.168a3.155,3.155,0,0,0,2.155.867l-1.3,2.69,1.3,1.23,1.3-1.229-1.3-2.69a3.155,3.155,0,0,0,2.155-.867c2,1.035,2.384,3.557,2.384,5.574H56.889c0-2.018.386-4.539,2.384-5.574Zm6.014.738a3.236,3.236,0,0,0,1.324-.738c2,1.036,2.383,3.557,2.383,5.575h-2.27c0-.085,0-.176-.006-.263,0-.039.006-.076.006-.116a7.233,7.233,0,0,0-.06-.883,6.03,6.03,0,0,0-1.378-3.575Z" transform="translate(-56.889 -56.889)" fill="#fff"/>
</svg>
