<svg xmlns="http://www.w3.org/2000/svg" xmlns:xlink="http://www.w3.org/1999/xlink" width="11.123" height="12.498" viewBox="0 0 11.123 12.498">
  <defs>
    <linearGradient id="linear-gradient" x1="0.5" x2="0.5" y2="1" gradientUnits="objectBoundingBox">
      <stop offset="0" stop-color="#1592e6"/>
      <stop offset="1" stop-color="#19a7e3"/>
    </linearGradient>
  </defs>
  <g id="组_1777" data-name="组 1777" transform="translate(-108.1 -58)">
    <path id="路径_628" data-name="路径 628" d="M116.9,65.408a2.655,2.655,0,0,1,1.527.494h.06V58.618a.581.581,0,0,0-.611-.618h-9.161a.581.581,0,0,0-.611.618V69.111a.581.581,0,0,0,.611.618h5.925a2.754,2.754,0,0,1,2.259-4.321ZM110.1,60.5h6.381a.391.391,0,0,1,0,.783H110.1a.391.391,0,0,1,0-.783Zm0,2.884h6.381a.391.391,0,0,1,0,.783H110.1a.391.391,0,1,1,0-.783Zm2.782,3.975h-2.872a.391.391,0,1,1,0-.783h2.872a.391.391,0,0,1,0,.783Z" transform="translate(0 0)" fill="#fff"/>
    <path id="路径_629" data-name="路径 629" d="M598.211,646a2.211,2.211,0,1,0,2.211,2.211A2.238,2.238,0,0,0,598.211,646Zm1.263,2.527h-1.263c-.126,0-.253,0-.253-.063s-.063-.19-.063-.253v-1.264a.316.316,0,0,1,.632,0v.948h.948a.316.316,0,1,1,0,.632Z" transform="translate(-481.199 -579.924)" fill="#fff"/>
  </g>
</svg>
