<svg xmlns="http://www.w3.org/2000/svg" width="11.123" height="9.981" viewBox="0 0 11.123 9.981">
  <path id="路径_666" data-name="路径 666" d="M59.777,104.506H56.061a.557.557,0,1,1,0-1.115h3.716a.557.557,0,0,1,0,1.115Zm-6.348,1.641a.569.569,0,0,0,.588.588.588.588,0,0,0,0-1.177A.569.569,0,0,0,53.429,106.147Zm0-2.2a.569.569,0,0,0,.588.588.588.588,0,1,0-.588-.588Zm6.348,2.756H56.061a.557.557,0,1,1,0-1.115h3.716a.557.557,0,0,1,0,1.115Zm2.539,1.8v-6.967a.711.711,0,0,0-.774-.774H57.176a.687.687,0,0,1-.4-.124s-.186-.31-.526-.805c-.31-.557-.712-.464-.712-.464H52.16a.9.9,0,0,0-.96.9v8.175c0,1.022.774.9.774.9h9.661c.805,0,.681-.836.681-.836Z" transform="translate(-51.2 -99.36)" fill="#fff"/>
</svg>
